<mxfile host="app.diagrams.net" agent="Mozilla/5.0 (Windows NT 10.0; Win64; x64) AppleWebKit/537.36 (KHTML, like Gecko) Chrome/136.0.0.0 Safari/537.36" version="27.0.1">
  <diagram name="Page-1" id="m71_5cMa4cmqgyScRpQz">
    <mxGraphModel dx="1426" dy="791" grid="1" gridSize="10" guides="1" tooltips="1" connect="1" arrows="1" fold="1" page="1" pageScale="1" pageWidth="850" pageHeight="1100" math="0" shadow="0">
      <root>
        <mxCell id="0" />
        <mxCell id="1" parent="0" />
        <mxCell id="bXHjOccjpbtI9uC0jvuR-31" style="rounded=0;orthogonalLoop=1;jettySize=auto;html=1;exitX=1;exitY=0.3333333333333333;exitDx=0;exitDy=0;exitPerimeter=0;entryX=0;entryY=0;entryDx=0;entryDy=0;" edge="1" parent="1" source="bXHjOccjpbtI9uC0jvuR-1" target="bXHjOccjpbtI9uC0jvuR-20">
          <mxGeometry relative="1" as="geometry" />
        </mxCell>
        <mxCell id="bXHjOccjpbtI9uC0jvuR-32" style="rounded=0;orthogonalLoop=1;jettySize=auto;html=1;exitX=1;exitY=0.3333333333333333;exitDx=0;exitDy=0;exitPerimeter=0;entryX=0;entryY=0;entryDx=0;entryDy=0;" edge="1" parent="1" source="bXHjOccjpbtI9uC0jvuR-1" target="bXHjOccjpbtI9uC0jvuR-22">
          <mxGeometry relative="1" as="geometry" />
        </mxCell>
        <mxCell id="bXHjOccjpbtI9uC0jvuR-1" value="Pasien" style="shape=umlActor;verticalLabelPosition=bottom;verticalAlign=top;html=1;outlineConnect=0;" vertex="1" parent="1">
          <mxGeometry x="110" y="120" width="30" height="60" as="geometry" />
        </mxCell>
        <mxCell id="bXHjOccjpbtI9uC0jvuR-30" style="rounded=0;orthogonalLoop=1;jettySize=auto;html=1;exitX=0;exitY=0.5;exitDx=0;exitDy=0;entryX=1;entryY=0.5;entryDx=0;entryDy=0;dashed=1;" edge="1" parent="1" source="bXHjOccjpbtI9uC0jvuR-5" target="bXHjOccjpbtI9uC0jvuR-20">
          <mxGeometry relative="1" as="geometry" />
        </mxCell>
        <mxCell id="bXHjOccjpbtI9uC0jvuR-5" value="Login" style="ellipse;whiteSpace=wrap;html=1;" vertex="1" parent="1">
          <mxGeometry x="450" y="140" width="100" height="60" as="geometry" />
        </mxCell>
        <mxCell id="bXHjOccjpbtI9uC0jvuR-28" style="rounded=0;orthogonalLoop=1;jettySize=auto;html=1;entryX=1;entryY=0;entryDx=0;entryDy=0;dashed=1;" edge="1" parent="1" source="bXHjOccjpbtI9uC0jvuR-6" target="bXHjOccjpbtI9uC0jvuR-5">
          <mxGeometry relative="1" as="geometry" />
        </mxCell>
        <mxCell id="bXHjOccjpbtI9uC0jvuR-6" value="Register" style="ellipse;whiteSpace=wrap;html=1;" vertex="1" parent="1">
          <mxGeometry x="620" y="130" width="100" height="60" as="geometry" />
        </mxCell>
        <mxCell id="bXHjOccjpbtI9uC0jvuR-24" style="rounded=0;orthogonalLoop=1;jettySize=auto;html=1;exitX=1;exitY=0.3333333333333333;exitDx=0;exitDy=0;exitPerimeter=0;entryX=0;entryY=0.5;entryDx=0;entryDy=0;" edge="1" parent="1" source="bXHjOccjpbtI9uC0jvuR-15" target="bXHjOccjpbtI9uC0jvuR-21">
          <mxGeometry relative="1" as="geometry" />
        </mxCell>
        <mxCell id="bXHjOccjpbtI9uC0jvuR-25" style="rounded=0;orthogonalLoop=1;jettySize=auto;html=1;exitX=1;exitY=0.3333333333333333;exitDx=0;exitDy=0;exitPerimeter=0;entryX=0;entryY=0.5;entryDx=0;entryDy=0;" edge="1" parent="1" source="bXHjOccjpbtI9uC0jvuR-15" target="bXHjOccjpbtI9uC0jvuR-22">
          <mxGeometry relative="1" as="geometry" />
        </mxCell>
        <mxCell id="bXHjOccjpbtI9uC0jvuR-33" style="rounded=0;orthogonalLoop=1;jettySize=auto;html=1;exitX=1;exitY=0.3333333333333333;exitDx=0;exitDy=0;exitPerimeter=0;entryX=0.5;entryY=1;entryDx=0;entryDy=0;" edge="1" parent="1" source="bXHjOccjpbtI9uC0jvuR-15" target="bXHjOccjpbtI9uC0jvuR-20">
          <mxGeometry relative="1" as="geometry" />
        </mxCell>
        <mxCell id="bXHjOccjpbtI9uC0jvuR-15" value="Dokter" style="shape=umlActor;verticalLabelPosition=bottom;verticalAlign=top;html=1;outlineConnect=0;" vertex="1" parent="1">
          <mxGeometry x="110" y="370" width="30" height="60" as="geometry" />
        </mxCell>
        <mxCell id="bXHjOccjpbtI9uC0jvuR-29" style="rounded=0;orthogonalLoop=1;jettySize=auto;html=1;entryX=1;entryY=1;entryDx=0;entryDy=0;dashed=1;" edge="1" parent="1" source="bXHjOccjpbtI9uC0jvuR-19" target="bXHjOccjpbtI9uC0jvuR-5">
          <mxGeometry relative="1" as="geometry" />
        </mxCell>
        <mxCell id="bXHjOccjpbtI9uC0jvuR-19" value="Register khusus" style="ellipse;whiteSpace=wrap;html=1;" vertex="1" parent="1">
          <mxGeometry x="595" y="300" width="125" height="80" as="geometry" />
        </mxCell>
        <mxCell id="bXHjOccjpbtI9uC0jvuR-20" value="Home" style="ellipse;whiteSpace=wrap;html=1;" vertex="1" parent="1">
          <mxGeometry x="280" y="140" width="110" height="60" as="geometry" />
        </mxCell>
        <mxCell id="bXHjOccjpbtI9uC0jvuR-21" value="Diagnose" style="ellipse;whiteSpace=wrap;html=1;" vertex="1" parent="1">
          <mxGeometry x="280" y="410" width="110" height="60" as="geometry" />
        </mxCell>
        <mxCell id="bXHjOccjpbtI9uC0jvuR-22" value="History" style="ellipse;whiteSpace=wrap;html=1;" vertex="1" parent="1">
          <mxGeometry x="280" y="270" width="110" height="60" as="geometry" />
        </mxCell>
      </root>
    </mxGraphModel>
  </diagram>
</mxfile>
